<svg viewBox="0 0 387 55" fill="none" xmlns="http://www.w3.org/2000/svg" style="width: 387px; height: 55px;"><path d="M70.5835 52.5974V13.5956H77.4247L94.1081 39.957L95.1502 42.5237L94.9282 39.7351V13.586H101.712V52.5877H95.0923L78.187 25.8982L77.0967 23.3316L77.3668 26.0623V52.5877H70.5835V52.5974Z" fill="#ffffff"></path><path fill-rule="evenodd" clip-rule="evenodd" d="M107.231 44.9939C107.231 50.1369 110.676 53.4176 117.517 53.4176C124.03 53.4176 128.247 50.407 130.379 46.3158L131.141 52.607H136.941V31.379C136.941 26.8342 135.3 23.4956 131.199 21.7491C129.115 20.8132 126.491 20.379 123.046 20.379C114.014 20.379 108.765 25.0781 108.273 32.2474H115.655C115.877 28.1948 118.221 25.9562 123.422 25.9562C128.343 25.9562 130.041 27.5965 130.041 30.2211C130.041 32.7974 127.803 33.5597 122.168 34.2737C118.221 34.8816 115.877 35.3158 114.014 35.9719C113.136 36.2421 112.21 36.686 111.332 37.2842C108.765 38.8667 107.231 41.4912 107.231 44.9939ZM130.099 38.3746C130.099 41.3851 128.401 44.5597 125.342 46.4702C123.808 47.3965 122.062 47.8886 119.968 47.8886C116.687 47.8886 115.047 46.5763 115.047 43.9518C115.047 42.5816 115.655 41.4912 116.909 40.6711C118.395 39.7448 119.92 39.3009 123.75 38.7027C126.597 38.2588 128.787 37.6027 130.099 36.6763V38.3746Z" fill="#ffffff"></path><path d="M143.56 52.5974V21.1412H149.629L150.285 27.4325C151.983 23.1097 155.534 20.379 160.957 20.379C168.56 20.379 172.603 25.4158 172.603 33.2316V52.5974H165.386V34.9781C165.386 29.8351 163.746 26.6123 158.603 26.6123C153.238 26.6123 150.777 30.3369 150.777 36.1842V52.5974H143.56Z" fill="#ffffff"></path><path fill-rule="evenodd" clip-rule="evenodd" d="M177.862 36.6763V37.4965C177.862 47.7825 183.546 53.4176 193.725 53.4176C200.123 53.4176 204.889 50.8991 207.62 46.1421C208.932 43.7877 209.589 40.9412 209.589 37.4965V36.6763C209.589 29.729 206.742 24.8562 201.927 22.2895C199.582 20.9772 196.9 20.379 193.725 20.379C187.54 20.379 182.668 22.9456 179.937 27.7605C178.576 30.1632 177.862 33.1737 177.862 36.6763ZM202.313 36.6763V37.3904C202.313 43.6237 199.139 47.1263 193.725 47.1263C188.37 47.1263 185.196 43.6237 185.196 37.3904V36.6763C185.196 30.0088 188.64 26.5062 193.783 26.5062C198.975 26.5062 202.313 30.2211 202.313 36.6763Z" fill="#ffffff"></path><path d="M238.961 48.4386C236.992 51.4491 233.711 53.4176 228.732 53.4176C219.218 53.4176 214.018 47.7825 214.018 35.2579V31.4851C214.018 19.0088 220.473 12.8912 231.087 12.8912C240.823 12.8912 246.294 18.0921 246.728 27.114H239.231C239.173 25.6377 238.845 24.4316 238.247 23.1772C237.156 20.8228 235.014 19.2983 230.971 19.2983C224.352 19.2983 221.341 23.3509 221.341 31.7746V34.9974C221.283 43.4211 224.294 46.9719 230.749 46.9719C232.833 46.9719 234.416 46.586 235.67 45.7658C238.189 44.1833 239.279 41.3368 239.337 38.3263H229.823V32.1316H246.892V52.5877H241.479L240.929 43.3439C240.553 45.1579 239.887 46.9044 238.961 48.4386Z" fill="#ffffff"></path><path fill-rule="evenodd" clip-rule="evenodd" d="M257.236 8.27896C254.061 8.27896 252.479 9.4851 252.479 12.9877C252.479 16.5965 253.791 17.7448 257.236 17.7448C260.459 17.7448 261.993 16.3746 261.993 12.9877C261.993 9.4851 260.411 8.27896 257.236 8.27896ZM260.787 21.1412H253.511V52.5974H260.787V21.1412Z" fill="#ffffff"></path><path fill-rule="evenodd" clip-rule="evenodd" d="M265.872 44.9939C265.872 50.1369 269.317 53.4176 276.158 53.4176C282.671 53.4176 286.878 50.407 289.02 46.3158L289.783 52.607H295.582V31.379C295.582 26.8342 293.941 23.4956 289.84 21.7491C287.756 20.8132 285.132 20.379 281.687 20.379C272.655 20.379 267.406 25.0781 266.914 32.2474H274.296C274.518 28.1948 276.862 25.9562 282.063 25.9562C286.984 25.9562 288.683 27.5965 288.683 30.2211C288.683 32.7974 286.444 33.5597 280.809 34.2737C276.862 34.8816 274.518 35.3158 272.655 35.9719C271.777 36.2421 270.851 36.686 269.973 37.2842C267.406 38.8667 265.872 41.4912 265.872 44.9939ZM288.74 38.3746C288.74 41.3851 287.052 44.5597 283.983 46.4702C282.449 47.3965 280.703 47.8886 278.619 47.8886C275.338 47.8886 273.698 46.5763 273.698 43.9518C273.698 42.5816 274.305 41.4912 275.56 40.6711C277.036 39.7448 278.561 39.3009 282.391 38.7027C285.238 38.2588 287.428 37.6027 288.74 36.6763V38.3746Z" fill="#ffffff"></path><path d="M302.201 52.5974V21.1412H308.27L308.927 27.4325C310.625 23.1097 314.176 20.379 319.589 20.379C327.192 20.379 331.235 25.4158 331.235 33.2316V52.5974H324.018V34.9781C324.018 29.8351 322.377 26.6123 317.235 26.6123C311.879 26.6123 309.409 30.3369 309.409 36.1842V52.5974H302.201Z" fill="#ffffff"></path><path d="M350.939 52.5974C347.986 52.5974 345.69 52.1632 344.156 51.4491C340.981 49.8667 339.997 46.4123 339.997 40.0149V27.4807H333.87V21.4114H336.658C337.7 21.4114 338.405 21.3053 338.906 21.0834C339.949 20.5912 340.277 19.3851 340.441 16.8184C340.499 15.4483 340.547 13.5956 340.547 12.6597H346.674V21.1412H354.992V27.4904H346.674V38.8088C346.674 40.8834 346.838 42.4176 347.108 43.4597C347.6 45.5342 349.241 45.9202 352.743 45.9202H354.982V52.5974H350.939Z" fill="#ffffff"></path><path d="M357.51 42.1956H365.277C365.933 45.9202 368.5 47.3965 372.987 47.3965C377.58 47.3965 379.384 45.8623 379.384 43.3439C379.384 42.4176 378.998 41.6456 378.178 41.1535C376.596 40.2272 373.855 39.8413 370.845 39.407C367.998 38.9728 365.104 38.4807 362.749 37.2167C360.395 35.9527 358.919 33.8298 358.919 30.3272C358.919 24.5281 363.241 20.3693 371.887 20.3693C380.909 20.3693 385.01 24.2483 385.888 30.5395H378.555C378.062 27.4807 375.988 26.1106 371.829 26.1106C367.342 26.1106 365.972 27.693 365.972 29.8834C365.972 30.8097 366.358 31.5816 367.178 32.0737C368.761 33 371.559 33.386 374.56 33.8202C377.406 34.2544 380.301 34.7465 382.655 36.0106C385.01 37.2649 386.486 39.3974 386.486 42.9C386.486 48.9693 382.105 53.3983 372.813 53.3983C363.145 53.4176 358.436 49.529 357.51 42.1956Z" fill="#ffffff"></path><path d="M10.8263 0V15.8921H35.2965C35.1518 23.6307 32.3439 30.9351 25.8789 35.0167C22.6465 37.1298 18.5649 38.114 13.2193 38.114C7.92193 38.114 3.52193 37.1781 0 35.2V54.1123C2.52807 54.4982 5.19123 54.7009 8.01842 54.7009C20.8132 54.7009 29.2561 49.6351 34.3123 41.9061C36.7053 37.9693 38.3939 33.4728 39.3781 28.8316L40.7868 52.5974H54.7105V0H10.8263Z" fill="#ffffff"></path></svg>